<svg  viewBox="60 450 13470 1500" version="1.1" xmlns="http://www.w3.org/2000/svg" xmlns:xlink="http://www.w3.org/1999/xlink" xml:space="preserve" xmlns:serif="http://www.serif.com/" style="fill-rule:evenodd;clip-rule:evenodd;stroke-linecap:round;stroke-linejoin:round;stroke-miterlimit:1.5;"><circle cx="1200" cy="1200" r="1000" style="fill:none;stroke:#fff;stroke-width:272.22px;"/><circle cx="1200" cy="1200" r="767.185" style="stroke:#000;stroke-width:1.33px;"/><path d="M1191.33,1722.89c-79.926,-0 -157.203,-10.833 -231.833,-32.5c-74.63,-21.667 -134.574,-49.833 -179.833,-84.5l79.444,-176.222c43.333,31.777 94.852,57.296 154.556,76.555c59.703,19.259 119.407,28.889 179.111,28.889c66.444,0 115.555,-9.87 147.333,-29.611c31.778,-19.741 47.667,-45.981 47.667,-78.722c-0,-24.074 -9.389,-44.056 -28.167,-59.945c-18.778,-15.889 -42.852,-28.648 -72.222,-38.277c-29.37,-9.63 -69.093,-20.223 -119.167,-31.778c-77.037,-18.297 -140.111,-36.593 -189.222,-54.889c-49.111,-18.296 -91.241,-47.667 -126.389,-88.111c-35.148,-40.445 -52.722,-94.371 -52.722,-161.778c-0,-58.741 15.889,-111.944 47.667,-159.611c31.777,-47.667 79.685,-85.463 143.722,-113.389c64.037,-27.926 142.278,-41.889 234.722,-41.889c64.519,0 127.593,7.704 189.222,23.111c61.63,15.408 115.556,37.556 161.778,66.445l-72.222,177.666c-93.408,-52.963 -186.815,-79.444 -280.222,-79.444c-65.482,-0 -113.871,10.592 -145.167,31.778c-31.296,21.185 -46.945,49.111 -46.945,83.777c0,34.667 18.056,60.426 54.167,77.278c36.111,16.852 91.241,33.463 165.389,49.834c77.037,18.296 140.111,36.592 189.222,54.888c49.111,18.297 91.241,47.186 126.389,86.667c35.148,39.482 52.722,92.926 52.722,160.333c0,57.778 -16.129,110.5 -48.389,158.167c-32.259,47.667 -80.648,85.463 -145.166,113.389c-64.519,27.926 -143,41.889 -235.445,41.889Z" style="fill:#fff;fill-rule:nonzero;"/><path d="M3297.53,1888.03c-95.297,-0 -187.435,-12.917 -276.417,-38.75c-88.981,-25.834 -160.454,-59.417 -214.417,-100.75l94.723,-210.111c51.666,37.889 113.092,68.314 184.277,91.277c71.186,22.963 142.371,34.445 213.556,34.445c79.222,-0 137.778,-11.769 175.667,-35.306c37.888,-23.537 56.833,-54.824 56.833,-93.861c-0,-28.703 -11.195,-52.528 -33.583,-71.472c-22.389,-18.944 -51.093,-34.157 -86.112,-45.639c-35.018,-11.481 -82.379,-24.111 -142.083,-37.889c-91.852,-21.815 -167.055,-43.629 -225.611,-65.444c-58.556,-21.815 -108.787,-56.834 -150.694,-105.056c-41.908,-48.222 -62.862,-112.518 -62.862,-192.889c0,-70.037 18.945,-133.472 56.834,-190.305c37.889,-56.834 95.009,-101.898 171.361,-135.195c76.352,-33.296 169.639,-49.944 279.861,-49.944c76.926,-0 152.13,9.185 225.611,27.555c73.482,18.371 137.778,44.778 192.889,79.223l-86.111,211.833c-111.37,-63.148 -222.741,-94.722 -334.111,-94.722c-78.074,-0 -135.769,12.629 -173.084,37.889c-37.314,25.259 -55.972,58.555 -55.972,99.889c0,41.333 21.528,72.046 64.584,92.138c43.055,20.093 108.787,39.899 197.194,59.417c91.852,21.815 167.056,43.63 225.611,65.445c58.556,21.814 108.787,56.259 150.695,103.333c41.907,47.074 62.861,110.796 62.861,191.167c-0,68.888 -19.232,131.75 -57.695,188.583c-38.463,56.833 -96.157,101.898 -173.083,135.194c-76.926,33.297 -170.5,49.945 -280.722,49.945Z" style="fill:#fff;fill-rule:nonzero;stroke:#fff;stroke-width:1.33px;stroke-linecap:butt;stroke-miterlimit:2;"/><path d="M4921.58,940.806l0,926.555l-256.611,0l0,-106.778c-66.592,80.371 -163.037,120.556 -289.333,120.556c-87.259,-0 -166.195,-19.519 -236.806,-58.556c-70.611,-39.037 -126.009,-94.722 -166.194,-167.055c-40.185,-72.334 -60.278,-156.148 -60.278,-251.445c0,-95.296 20.093,-179.111 60.278,-251.444c40.185,-72.333 95.583,-128.019 166.194,-167.056c70.611,-39.037 149.547,-58.555 236.806,-58.555c118.259,-0 210.685,37.315 277.278,111.944l-0,-98.166l268.666,-0Zm-499.444,719.888c67.741,0 124,-23.25 168.778,-69.75c44.777,-46.5 67.166,-108.787 67.166,-186.861c0,-78.074 -22.389,-140.361 -67.166,-186.861c-44.778,-46.5 -101.037,-69.75 -168.778,-69.75c-68.889,0 -125.722,23.25 -170.5,69.75c-44.778,46.5 -67.167,108.787 -67.167,186.861c0,78.074 22.389,140.361 67.167,186.861c44.778,46.5 101.611,69.75 170.5,69.75Z" style="fill:#fff;fill-rule:nonzero;stroke:#fff;stroke-width:1.33px;stroke-linecap:butt;stroke-miterlimit:2;"/><path d="M6103.03,940.806l-0,926.555l-254.889,0l-0,-110.222c-35.593,40.185 -78.074,70.898 -127.445,92.139c-49.37,21.241 -102.759,31.861 -160.166,31.861c-121.704,-0 -218.148,-35.019 -289.334,-105.056c-71.185,-70.037 -106.777,-173.944 -106.777,-311.722l-0,-523.555l268.666,-0l0,483.944c0,149.259 62.574,223.889 187.722,223.889c64.297,-0 115.963,-20.954 155,-62.861c39.038,-41.908 58.556,-104.195 58.556,-186.861l0,-458.111l268.667,-0Z" style="fill:#fff;fill-rule:nonzero;stroke:#fff;stroke-width:1.33px;stroke-linecap:butt;stroke-miterlimit:2;"/><path d="M6685.14,1881.14c-104.482,-0 -186,-27.843 -244.556,-83.528c-58.555,-55.685 -87.833,-134.62 -87.833,-236.805l-0,-971.334l268.667,0l-0,955.834c-0,39.037 10.046,69.175 30.138,90.416c20.093,21.241 48.51,31.861 85.25,31.861c13.778,0 27.843,-1.722 42.195,-5.166c14.352,-3.445 25.546,-7.463 33.583,-12.056l12.056,208.389c-44.778,14.926 -91.278,22.389 -139.5,22.389Z" style="fill:#fff;fill-rule:nonzero;stroke:#fff;stroke-width:1.33px;stroke-linecap:butt;stroke-miterlimit:2;"/><path d="M7859.69,1888.03c-95.296,-0 -187.435,-12.917 -276.416,-38.75c-88.982,-25.834 -160.454,-59.417 -214.417,-100.75l94.722,-210.111c51.667,37.889 113.093,68.314 184.278,91.277c71.185,22.963 142.37,34.445 213.556,34.445c79.222,-0 137.777,-11.769 175.666,-35.306c37.889,-23.537 56.834,-54.824 56.834,-93.861c-0,-28.703 -11.195,-52.528 -33.584,-71.472c-22.389,-18.944 -51.092,-34.157 -86.111,-45.639c-35.018,-11.481 -82.379,-24.111 -142.083,-37.889c-91.852,-21.815 -167.056,-43.629 -225.611,-65.444c-58.556,-21.815 -108.787,-56.834 -150.695,-105.056c-41.907,-48.222 -62.861,-112.518 -62.861,-192.889c0,-70.037 18.945,-133.472 56.833,-190.305c37.889,-56.834 95.01,-101.898 171.362,-135.195c76.351,-33.296 169.638,-49.944 279.861,-49.944c76.926,-0 152.129,9.185 225.611,27.555c73.481,18.371 137.778,44.778 192.889,79.223l-86.111,211.833c-111.371,-63.148 -222.741,-94.722 -334.112,-94.722c-78.074,-0 -135.768,12.629 -173.083,37.889c-37.315,25.259 -55.972,58.555 -55.972,99.889c-0,41.333 21.528,72.046 64.583,92.138c43.056,20.093 108.787,39.899 197.195,59.417c91.852,21.815 167.055,43.63 225.611,65.445c58.555,21.814 108.787,56.259 150.694,103.333c41.908,47.074 62.861,110.796 62.861,191.167c0,68.888 -19.231,131.75 -57.694,188.583c-38.463,56.833 -96.157,101.898 -173.083,135.194c-76.926,33.297 -170.5,49.945 -280.723,49.945Z" style="fill:#fff;fill-rule:nonzero;stroke:#fff;stroke-width:1.33px;stroke-linecap:butt;stroke-miterlimit:2;"/><path d="M9101.42,1822.58c-26.408,19.519 -58.843,34.158 -97.306,43.917c-38.463,9.759 -78.361,14.639 -119.694,14.639c-111.371,-0 -196.908,-28.13 -256.612,-84.389c-59.703,-56.259 -89.555,-138.926 -89.555,-248l-0,-812.889l268.667,0l-0,225.611l229.055,0l0,206.667l-229.055,-0l-0,377.167c-0,39.037 9.759,69.175 29.277,90.416c19.519,21.241 47.649,31.861 84.389,31.861c41.334,0 78.074,-11.481 110.222,-34.444l70.612,189.444Z" style="fill:#fff;fill-rule:nonzero;stroke:#fff;stroke-width:1.33px;stroke-linecap:butt;stroke-miterlimit:2;"/><path d="M10186.4,940.806l-0,926.555l-254.889,0l-0,-110.222c-35.593,40.185 -78.074,70.898 -127.445,92.139c-49.37,21.241 -102.759,31.861 -160.166,31.861c-121.704,-0 -218.149,-35.019 -289.334,-105.056c-71.185,-70.037 -106.778,-173.944 -106.778,-311.722l0,-523.555l268.667,-0l0,483.944c0,149.259 62.574,223.889 187.722,223.889c64.297,-0 115.963,-20.954 155,-62.861c39.037,-41.908 58.556,-104.195 58.556,-186.861l-0,-458.111l268.667,-0Z" style="fill:#fff;fill-rule:nonzero;stroke:#fff;stroke-width:1.33px;stroke-linecap:butt;stroke-miterlimit:2;"/><path d="M11379.9,589.472l-0,1277.89l-256.612,0l0,-106.778c-66.592,80.371 -163.037,120.556 -289.333,120.556c-87.259,-0 -166.194,-19.519 -236.805,-58.556c-70.612,-39.037 -126.01,-94.722 -166.195,-167.055c-40.185,-72.334 -60.278,-156.148 -60.278,-251.445c0,-95.296 20.093,-179.111 60.278,-251.444c40.185,-72.333 95.583,-128.019 166.195,-167.056c70.611,-39.037 149.546,-58.555 236.805,-58.555c118.259,-0 210.685,37.315 277.278,111.944l-0,-449.5l268.667,0Zm-499.445,1071.22c67.741,0 124,-23.25 168.778,-69.75c44.778,-46.5 67.167,-108.787 67.167,-186.861c-0,-78.074 -22.389,-140.361 -67.167,-186.861c-44.778,-46.5 -101.037,-69.75 -168.778,-69.75c-68.889,0 -125.722,23.25 -170.5,69.75c-44.778,46.5 -67.167,108.787 -67.167,186.861c0,78.074 22.389,140.361 67.167,186.861c44.778,46.5 101.611,69.75 170.5,69.75Z" style="fill:#fff;fill-rule:nonzero;stroke:#fff;stroke-width:1.33px;stroke-linecap:butt;stroke-miterlimit:2;"/><path d="M11627.9,940.806l268.666,-0l0,926.555l-268.666,0l-0,-926.555Zm134.333,-129.167c-49.37,-0 -89.556,-14.352 -120.556,-43.056c-31,-28.703 -46.5,-64.296 -46.5,-106.777c0,-42.482 15.5,-78.075 46.5,-106.778c31,-28.704 71.186,-43.056 120.556,-43.056c49.37,0 89.555,13.778 120.555,41.334c31,27.555 46.5,62 46.5,103.333c0,44.778 -15.5,81.805 -46.5,111.083c-31,29.278 -71.185,43.917 -120.555,43.917Z" style="fill:#fff;fill-rule:nonzero;stroke:#fff;stroke-width:1.33px;stroke-linecap:butt;stroke-miterlimit:2;"/><path d="M12587.2,1881.14c-97.592,-0 -185.139,-20.38 -262.639,-61.139c-77.5,-40.759 -138.064,-97.306 -181.694,-169.639c-43.63,-72.333 -65.444,-154.426 -65.444,-246.278c-0,-91.852 21.814,-173.944 65.444,-246.277c43.63,-72.334 104.194,-128.88 181.694,-169.639c77.5,-40.76 165.047,-61.139 262.639,-61.139c97.593,-0 184.852,20.379 261.778,61.139c76.926,40.759 137.204,97.305 180.833,169.639c43.63,72.333 65.445,154.425 65.445,246.277c-0,91.852 -21.815,173.945 -65.445,246.278c-43.629,72.333 -103.907,128.88 -180.833,169.639c-76.926,40.759 -164.185,61.139 -261.778,61.139Zm0,-220.445c68.889,0 125.436,-23.25 169.639,-69.75c44.204,-46.5 66.306,-108.787 66.306,-186.861c-0,-78.074 -22.102,-140.361 -66.306,-186.861c-44.203,-46.5 -100.75,-69.75 -169.639,-69.75c-68.889,0 -125.722,23.25 -170.5,69.75c-44.777,46.5 -67.166,108.787 -67.166,186.861c-0,78.074 22.389,140.361 67.166,186.861c44.778,46.5 101.611,69.75 170.5,69.75Z" style="fill:#fff;fill-rule:nonzero;stroke:#fff;stroke-width:1.33px;stroke-linecap:butt;stroke-miterlimit:2;"/><path d="M13363.9,1881.14c-47.074,-0 -86.686,-16.074 -118.834,-48.222c-32.148,-32.148 -48.222,-72.334 -48.222,-120.556c0,-49.37 16.074,-89.268 48.222,-119.694c32.148,-30.426 71.76,-45.639 118.834,-45.639c47.074,-0 86.685,15.213 118.833,45.639c32.148,30.426 48.222,70.324 48.222,119.694c0,48.222 -16.074,88.408 -48.222,120.556c-32.148,32.148 -71.759,48.222 -118.833,48.222Z" style="fill:#fff;fill-rule:nonzero;stroke:#fff;stroke-width:1.33px;stroke-linecap:butt;stroke-miterlimit:2;"/></svg>