<?xml version="1.0" encoding="UTF-8" standalone="no"?><!DOCTYPE svg PUBLIC "-//W3C//DTD SVG 1.1//EN" "http://www.w3.org/Graphics/SVG/1.1/DTD/svg11.dtd"><svg viewBox="0 0 14134 2400" version="1.1" xmlns="http://www.w3.org/2000/svg" xmlns:xlink="http://www.w3.org/1999/xlink" xml:space="preserve" xmlns:serif="http://www.serif.com/" style="fill-rule:evenodd;clip-rule:evenodd;stroke-linecap:round;stroke-linejoin:round;stroke-miterlimit:1.5;"><circle cx="1200" cy="1200" r="1000" style="fill:none;stroke:#000;stroke-width:272.22px;"/><circle cx="1200" cy="1200" r="767.1849" style="stroke:#000;stroke-width:1.33px;"/><path d="M1191.3333,1722.8889c-79.9259,0 -157.2037,-10.8333 -231.8333,-32.5c-74.6296,-21.6667 -134.5741,-49.8333 -179.8333,-84.5l79.4444,-176.2222c43.3333,31.7778 94.8519,57.2963 154.5556,76.5556c59.7037,19.2593 119.4074,28.8889 179.1111,28.8889c66.4444,0 115.5556,-9.8704 147.3333,-29.6111c31.7778,-19.7407 47.6667,-45.9815 47.6667,-78.7222c0,-24.0741 -9.3889,-44.0556 -28.1667,-59.9444c-18.7778,-15.8889 -42.8519,-28.6481 -72.2222,-38.2778c-29.3704,-9.6296 -69.0926,-20.2222 -119.1667,-31.7778c-77.037,-18.2963 -140.1111,-36.5926 -189.2222,-54.8889c-49.1111,-18.2963 -91.2407,-47.6667 -126.3889,-88.1111c-35.1481,-40.4444 -52.7222,-94.3704 -52.7222,-161.7778c0,-58.7407 15.8889,-111.9444 47.6667,-159.6111c31.7778,-47.6667 79.6852,-85.463 143.7222,-113.3889c64.037,-27.9259 142.2778,-41.8889 234.7222,-41.8889c64.5185,-0 127.5926,7.7037 189.2222,23.1111c61.6296,15.4074 115.5556,37.5556 161.7778,66.4444l-72.2222,177.6667c-93.4074,-52.963 -186.8148,-79.4444 -280.2222,-79.4444c-65.4815,0 -113.8704,10.5926 -145.1667,31.7778c-31.2963,21.1852 -46.9444,49.1111 -46.9444,83.7778c0,34.6667 18.0556,60.4259 54.1667,77.2778c36.1111,16.8519 91.2407,33.463 165.3889,49.8333c77.037,18.2963 140.1111,36.5926 189.2222,54.8889c49.1111,18.2963 91.2407,47.1852 126.3889,86.6667c35.1481,39.4815 52.7222,92.9259 52.7222,160.3333c0,57.7778 -16.1296,110.5 -48.3889,158.1667c-32.2593,47.6667 -80.6481,85.463 -145.1667,113.3889c-64.5185,27.9259 -143,41.8889 -235.4444,41.8889Z" style="fill:#fff;fill-rule:nonzero;"/><g><path d="M3297.5257,1888.0278c-95.2963,0 -187.4352,-12.9167 -276.4167,-38.75c-88.9815,-25.8333 -160.4537,-59.4167 -214.4167,-100.75l94.7222,-210.1111c51.6667,37.8889 113.0926,68.3148 184.2778,91.2778c71.1852,22.963 142.3704,34.4444 213.5556,34.4444c79.2222,0 137.7778,-11.7685 175.6667,-35.3056c37.8889,-23.537 56.8333,-54.8241 56.8333,-93.8611c0,-28.7037 -11.1944,-52.5278 -33.5833,-71.4722c-22.3889,-18.9444 -51.0926,-34.1574 -86.1111,-45.6389c-35.0185,-11.4815 -82.3796,-24.1111 -142.0833,-37.8889c-91.8519,-21.8148 -167.0556,-43.6296 -225.6111,-65.4444c-58.5556,-21.8148 -108.787,-56.8333 -150.6944,-105.0556c-41.9074,-48.2222 -62.8611,-112.5185 -62.8611,-192.8889c0,-70.037 18.9444,-133.4722 56.8333,-190.3056c37.8889,-56.8333 95.0093,-101.8981 171.3611,-135.1944c76.3519,-33.2963 169.6389,-49.9444 279.8611,-49.9444c76.9259,-0 152.1296,9.1852 225.6111,27.5556c73.4815,18.3704 137.7778,44.7778 192.8889,79.2222l-86.1111,211.8333c-111.3704,-63.1481 -222.7407,-94.7222 -334.1111,-94.7222c-78.0741,0 -135.7685,12.6296 -173.0833,37.8889c-37.3148,25.2593 -55.9722,58.5556 -55.9722,99.8889c0,41.3333 21.5278,72.0463 64.5833,92.1389c43.0556,20.0926 108.787,39.8981 197.1944,59.4167c91.8519,21.8148 167.0556,43.6296 225.6111,65.4444c58.5556,21.8148 108.787,56.2593 150.6944,103.3333c41.9074,47.0741 62.8611,110.7963 62.8611,191.1667c0,68.8889 -19.2315,131.75 -57.6944,188.5833c-38.463,56.8333 -96.1574,101.8981 -173.0833,135.1944c-76.9259,33.2963 -170.5,49.9444 -280.7222,49.9444Z" style="fill-rule:nonzero;"/><path d="M4921.5813,940.8056l0,926.5556l-256.6111,0l0,-106.7778c-66.5926,80.3704 -163.037,120.5556 -289.3333,120.5556c-87.2593,0 -166.1944,-19.5185 -236.8056,-58.5556c-70.6111,-39.037 -126.0093,-94.7222 -166.1944,-167.0556c-40.1852,-72.3333 -60.2778,-156.1481 -60.2778,-251.4444c0,-95.2963 20.0926,-179.1111 60.2778,-251.4444c40.1852,-72.3333 95.5833,-128.0185 166.1944,-167.0556c70.6111,-39.037 149.5463,-58.5556 236.8056,-58.5556c118.2593,0 210.6852,37.3148 277.2778,111.9444l0,-98.1667l268.6667,0Zm-499.4444,719.8889c67.7407,0 124,-23.25 168.7778,-69.75c44.7778,-46.5 67.1667,-108.787 67.1667,-186.8611c0,-78.0741 -22.3889,-140.3611 -67.1667,-186.8611c-44.7778,-46.5 -101.037,-69.75 -168.7778,-69.75c-68.8889,0 -125.7222,23.25 -170.5,69.75c-44.7778,46.5 -67.1667,108.787 -67.1667,186.8611c0,78.0741 22.3889,140.3611 67.1667,186.8611c44.7778,46.5 101.6111,69.75 170.5,69.75Z" style="fill-rule:nonzero;"/><path d="M6103.0257,940.8056l0,926.5556l-254.8889,0l0,-110.2222c-35.5926,40.1852 -78.0741,70.8981 -127.4444,92.1389c-49.3704,21.2407 -102.7593,31.8611 -160.1667,31.8611c-121.7037,0 -218.1481,-35.0185 -289.3333,-105.0556c-71.1852,-70.037 -106.7778,-173.9444 -106.7778,-311.7222l0,-523.5556l268.6667,0l0,483.9444c0,149.2593 62.5741,223.8889 187.7222,223.8889c64.2963,0 115.963,-20.9537 155,-62.8611c39.037,-41.9074 58.5556,-104.1944 58.5556,-186.8611l0,-458.1111l268.6667,0Z" style="fill-rule:nonzero;"/><path d="M6685.1368,1881.1389c-104.4815,0 -186,-27.8426 -244.5556,-83.5278c-58.5556,-55.6852 -87.8333,-134.6204 -87.8333,-236.8056l0,-971.3333l268.6667,0l0,955.8333c0,39.037 10.0463,69.1759 30.1389,90.4167c20.0926,21.2407 48.5093,31.8611 85.25,31.8611c13.7778,0 27.8426,-1.7222 42.1944,-5.1667c14.3519,-3.4444 25.5463,-7.463 33.5833,-12.0556l12.0556,208.3889c-44.7778,14.9259 -91.2778,22.3889 -139.5,22.3889Z" style="fill-rule:nonzero;"/><path d="M7859.6924,1888.0278c-95.2963,0 -187.4352,-12.9167 -276.4167,-38.75c-88.9815,-25.8333 -160.4537,-59.4167 -214.4167,-100.75l94.7222,-210.1111c51.6667,37.8889 113.0926,68.3148 184.2778,91.2778c71.1852,22.963 142.3704,34.4444 213.5556,34.4444c79.2222,0 137.7778,-11.7685 175.6667,-35.3056c37.8889,-23.537 56.8333,-54.8241 56.8333,-93.8611c0,-28.7037 -11.1944,-52.5278 -33.5833,-71.4722c-22.3889,-18.9444 -51.0926,-34.1574 -86.1111,-45.6389c-35.0185,-11.4815 -82.3796,-24.1111 -142.0833,-37.8889c-91.8519,-21.8148 -167.0556,-43.6296 -225.6111,-65.4444c-58.5556,-21.8148 -108.787,-56.8333 -150.6944,-105.0556c-41.9074,-48.2222 -62.8611,-112.5185 -62.8611,-192.8889c0,-70.037 18.9444,-133.4722 56.8333,-190.3056c37.8889,-56.8333 95.0093,-101.8981 171.3611,-135.1944c76.3519,-33.2963 169.6389,-49.9444 279.8611,-49.9444c76.9259,-0 152.1296,9.1852 225.6111,27.5556c73.4815,18.3704 137.7778,44.7778 192.8889,79.2222l-86.1111,211.8333c-111.3704,-63.1481 -222.7407,-94.7222 -334.1111,-94.7222c-78.0741,0 -135.7685,12.6296 -173.0833,37.8889c-37.3148,25.2593 -55.9722,58.5556 -55.9722,99.8889c0,41.3333 21.5278,72.0463 64.5833,92.1389c43.0556,20.0926 108.787,39.8981 197.1944,59.4167c91.8519,21.8148 167.0556,43.6296 225.6111,65.4444c58.5556,21.8148 108.787,56.2593 150.6944,103.3333c41.9074,47.0741 62.8611,110.7963 62.8611,191.1667c0,68.8889 -19.2315,131.75 -57.6944,188.5833c-38.463,56.8333 -96.1574,101.8981 -173.0833,135.1944c-76.9259,33.2963 -170.5,49.9444 -280.7222,49.9444Z" style="fill-rule:nonzero;"/><path d="M9101.4146,1822.5833c-26.4074,19.5185 -58.8426,34.1574 -97.3056,43.9167c-38.463,9.7593 -78.3611,14.6389 -119.6944,14.6389c-111.3704,0 -196.9074,-28.1296 -256.6111,-84.3889c-59.7037,-56.2593 -89.5556,-138.9259 -89.5556,-248l0,-812.8889l268.6667,0l0,225.6111l229.0556,0l0,206.6667l-229.0556,0l0,377.1667c0,39.037 9.7593,69.1759 29.2778,90.4167c19.5185,21.2407 47.6481,31.8611 84.3889,31.8611c41.3333,0 78.0741,-11.4815 110.2222,-34.4444l70.6111,189.4444Z" style="fill-rule:nonzero;"/><path d="M10186.4146,940.8056l0,926.5556l-254.8889,0l0,-110.2222c-35.5926,40.1852 -78.0741,70.8981 -127.4444,92.1389c-49.3704,21.2407 -102.7593,31.8611 -160.1667,31.8611c-121.7037,0 -218.1481,-35.0185 -289.3333,-105.0556c-71.1852,-70.037 -106.7778,-173.9444 -106.7778,-311.7222l0,-523.5556l268.6667,0l0,483.9444c0,149.2593 62.5741,223.8889 187.7222,223.8889c64.2963,0 115.963,-20.9537 155,-62.8611c39.037,-41.9074 58.5556,-104.1944 58.5556,-186.8611l0,-458.1111l268.6667,0Z" style="fill-rule:nonzero;"/><path d="M11379.9146,589.4722l0,1277.8889l-256.6111,0l0,-106.7778c-66.5926,80.3704 -163.037,120.5556 -289.3333,120.5556c-87.2593,0 -166.1944,-19.5185 -236.8056,-58.5556c-70.6111,-39.037 -126.0093,-94.7222 -166.1944,-167.0556c-40.1852,-72.3333 -60.2778,-156.1481 -60.2778,-251.4444c0,-95.2963 20.0926,-179.1111 60.2778,-251.4444c40.1852,-72.3333 95.5833,-128.0185 166.1944,-167.0556c70.6111,-39.037 149.5463,-58.5556 236.8056,-58.5556c118.2593,0 210.6852,37.3148 277.2778,111.9444l0,-449.5l268.6667,0Zm-499.4444,1071.2222c67.7407,0 124,-23.25 168.7778,-69.75c44.7778,-46.5 67.1667,-108.787 67.1667,-186.8611c0,-78.0741 -22.3889,-140.3611 -67.1667,-186.8611c-44.7778,-46.5 -101.037,-69.75 -168.7778,-69.75c-68.8889,0 -125.7222,23.25 -170.5,69.75c-44.7778,46.5 -67.1667,108.787 -67.1667,186.8611c0,78.0741 22.3889,140.3611 67.1667,186.8611c44.7778,46.5 101.6111,69.75 170.5,69.75Z" style="fill-rule:nonzero;"/><path d="M11627.9146,940.8056l268.6667,0l0,926.5556l-268.6667,0l0,-926.5556Zm134.3333,-129.1667c-49.3704,0 -89.5556,-14.3519 -120.5556,-43.0556c-31,-28.7037 -46.5,-64.2963 -46.5,-106.7778c0,-42.4815 15.5,-78.0741 46.5,-106.7778c31,-28.7037 71.1852,-43.0556 120.5556,-43.0556c49.3704,0 89.5556,13.7778 120.5556,41.3333c31,27.5556 46.5,62 46.5,103.3333c0,44.7778 -15.5,81.8056 -46.5,111.0833c-31,29.2778 -71.1852,43.9167 -120.5556,43.9167Z" style="fill-rule:nonzero;"/><path d="M12587.1924,1881.1389c-97.5926,0 -185.1389,-20.3796 -262.6389,-61.1389c-77.5,-40.7593 -138.0648,-97.3056 -181.6944,-169.6389c-43.6296,-72.3333 -65.4444,-154.4259 -65.4444,-246.2778c0,-91.8519 21.8148,-173.9444 65.4444,-246.2778c43.6296,-72.3333 104.1944,-128.8796 181.6944,-169.6389c77.5,-40.7593 165.0463,-61.1389 262.6389,-61.1389c97.5926,0 184.8519,20.3796 261.7778,61.1389c76.9259,40.7593 137.2037,97.3056 180.8333,169.6389c43.6296,72.3333 65.4444,154.4259 65.4444,246.2778c0,91.8519 -21.8148,173.9444 -65.4444,246.2778c-43.6296,72.3333 -103.9074,128.8796 -180.8333,169.6389c-76.9259,40.7593 -164.1852,61.1389 -261.7778,61.1389Zm0,-220.4444c68.8889,0 125.4352,-23.25 169.6389,-69.75c44.2037,-46.5 66.3056,-108.787 66.3056,-186.8611c0,-78.0741 -22.1019,-140.3611 -66.3056,-186.8611c-44.2037,-46.5 -100.75,-69.75 -169.6389,-69.75c-68.8889,0 -125.7222,23.25 -170.5,69.75c-44.7778,46.5 -67.1667,108.787 -67.1667,186.8611c0,78.0741 22.3889,140.3611 67.1667,186.8611c44.7778,46.5 101.6111,69.75 170.5,69.75Z" style="fill-rule:nonzero;"/><path d="M13363.9146,1881.1389c-47.0741,0 -86.6852,-16.0741 -118.8333,-48.2222c-32.1481,-32.1481 -48.2222,-72.3333 -48.2222,-120.5556c0,-49.3704 16.0741,-89.2685 48.2222,-119.6944c32.1481,-30.4259 71.7593,-45.6389 118.8333,-45.6389c47.0741,0 86.6852,15.213 118.8333,45.6389c32.1481,30.4259 48.2222,70.3241 48.2222,119.6944c0,48.2222 -16.0741,88.4074 -48.2222,120.5556c-32.1481,32.1481 -71.7593,48.2222 -118.8333,48.2222Z" style="fill-rule:nonzero;"/></g></svg>